<svg xmlns="http://www.w3.org/2000/svg" viewBox="0 0 900 760">
  <rect width="900" height="760" fill="#f7f3ea"/>
  <g fill="none" stroke="#171614" stroke-width="3">
    <path d="M68 634h764M102 634V230h86v404M214 634V162h104v472M348 634V286h88v348M468 634V110h128v524M628 634V246h104v388"/>
    <path d="M116 272h58M116 316h58M116 360h58M230 204h72M230 250h72M230 296h72M366 328h52M366 374h52M488 154h88M488 204h88M488 254h88M488 304h88M650 290h60M650 338h60"/>
    <path d="M210 634c22-82 86-132 162-132s138 50 160 132"/>
    <path d="M318 504c9-52 52-88 104-88s94 36 104 88"/>
  </g>
  <g fill="#171614">
    <circle cx="368" cy="396" r="22"/><circle cx="456" cy="398" r="22"/><circle cx="414" cy="356" r="24"/>
    <path d="M330 560c12-58 156-58 168 0v74H330z"/>
  </g>
  <g fill="none" stroke="#171614" stroke-width="2" opacity=".45">
    <path d="M38 686c118-26 234-26 350 0s236 26 354 0"/>
    <path d="M60 706c118-18 228-18 330 0s216 18 342 0"/>
    <path d="M740 166c30-20 54-18 72 6"/>
  </g>
</svg>
